<svg width="161" height="86" viewBox="0 0 161 86" fill="none" xmlns="http://www.w3.org/2000/svg">
<path d="M23.2652 6.23921C22.9693 6.23921 22.6838 6.19543 22.4151 6.11426V10.0466H24.1152V6.11426C23.8465 6.19554 23.561 6.23921 23.2652 6.23921Z" fill="#135693"/>
<path d="M23.2676 6.34991C24.9184 6.34991 26.2567 5.05523 26.2567 3.45816C26.2567 1.86109 24.9184 0.566406 23.2676 0.566406C21.6168 0.566406 20.2786 1.86109 20.2786 3.45816C20.2786 5.05523 21.6168 6.34991 23.2676 6.34991Z" fill="#6BC1DD"/>
<g opacity="0.15">
<path opacity="0.15" d="M22.7945 3.45816C22.7945 2.29607 23.5034 1.29457 24.5257 0.834903C24.1431 0.662981 23.7172 0.566406 23.2676 0.566406C21.6168 0.566406 20.2786 1.86115 20.2786 3.45816C20.2786 5.05517 21.6168 6.3498 23.2676 6.3498C23.7172 6.3498 24.1431 6.25323 24.5257 6.08131C23.5034 5.62175 22.7945 4.62025 22.7945 3.45816Z" fill="#440075"/>
</g>
<path d="M42.3197 14.561H40.5571V30.2922H42.3197C43.286 30.2922 44.0766 29.5274 44.0766 28.5926V16.2607C44.0766 15.3259 43.286 14.561 42.3197 14.561Z" fill="#9EA7AF"/>
<path d="M5.97783 14.5605H4.09891C3.13262 14.5605 2.3421 15.3254 2.3421 16.2602V28.592C2.3421 29.5268 3.13262 30.2916 4.09891 30.2916H5.97772L5.97783 14.5605Z" fill="#9EA7AF"/>
<path d="M7.17584 50.8731H4.76142C3.93713 50.8731 3.1714 50.6308 2.53607 50.2158V55.7507C2.53607 56.374 3.06316 56.8839 3.70736 56.8839H7.17584V50.8731Z" fill="#C5CCD3"/>
<path d="M41.7734 50.8729H39.3591V56.8838H42.8276C43.4718 56.8838 43.9989 56.3739 43.9989 55.7506V50.2158C43.3634 50.6306 42.5977 50.8729 41.7734 50.8729Z" fill="#C5CCD3"/>
<path opacity="0.15" d="M4.99574 55.7508V50.8731H4.76142C3.93713 50.8731 3.1714 50.6308 2.53607 50.2158V55.7507C2.53607 56.374 3.06316 56.8839 3.70736 56.8839H6.16703C5.52283 56.884 4.99574 56.3741 4.99574 55.7508Z" fill="#440075"/>
<path d="M7.1759 42.21H4.76148C2.56217 42.21 0.779205 43.9349 0.779205 46.0626V47.1958C0.779205 49.3235 2.56228 51.0483 4.76148 51.0483H7.17579L7.1759 42.21Z" fill="#E6E9ED"/>
<path d="M41.7734 42.2095H39.3591V51.048H41.7734C43.9729 51.048 45.7557 49.323 45.7557 47.1954V46.0622C45.7557 43.9343 43.9728 42.2095 41.7734 42.2095Z" fill="#E6E9ED"/>
<g opacity="0.15">
<path opacity="0.15" d="M3.59031 47.1953V46.0621C3.59031 43.9343 5.37327 42.2095 7.57258 42.2095H4.76148C2.56217 42.2095 0.779205 43.9344 0.779205 46.0621V47.1953C0.779205 49.323 2.56228 51.0479 4.76148 51.0479H7.57258C5.37316 51.0479 3.59031 49.323 3.59031 47.1953Z" fill="#440075"/>
</g>
<path d="M27.1558 34.6709H19.3802V37.4819H27.1558V34.6709Z" fill="#9EA7AF"/>
<path opacity="0.15" d="M22.2136 34.6709H19.3802V37.4819H22.2136V34.6709Z" fill="#440075"/>
<path d="M32.4139 40.1642V38.3356C32.4139 37.7982 31.9593 37.3584 31.4038 37.3584H14.7901C14.2345 37.3584 13.78 37.7982 13.78 38.3356V40.1642H32.4139Z" fill="#C5CCD3"/>
<path opacity="0.15" d="M17.283 40.1642V38.3356C17.283 37.7982 17.7376 37.3584 18.2933 37.3584H14.7901C14.2345 37.3584 13.78 37.7982 13.78 38.3356V40.1642H17.283Z" fill="#440075"/>
<path d="M37.7156 39.9722H8.81891C7.85261 39.9722 7.06198 40.7371 7.06198 41.6719V56.8844H39.4725V41.6719C39.4725 40.7371 38.682 39.9722 37.7156 39.9722Z" fill="#9EA7AF"/>
<g opacity="0.15">
<path opacity="0.15" d="M12.1737 39.9722H8.81891C7.85261 39.9722 7.06198 40.7371 7.06198 41.6719V56.8844H10.4168V41.6719C10.4168 40.7371 11.2074 39.9722 12.1737 39.9722Z" fill="#440075"/>
</g>
<path d="M40.6708 33.1011C40.6708 34.0359 39.8801 34.8007 38.9139 34.8007H7.62082C6.65465 34.8007 5.86401 34.0359 5.86401 33.1011V11.6366C5.86401 10.7018 6.65465 9.93701 7.62082 9.93701H38.9139C39.8801 9.93701 40.6708 10.7018 40.6708 11.6366V33.1011Z" fill="#C5CCD3"/>
<g opacity="0.15">
<path opacity="0.15" d="M9.21221 33.1011V11.6366C9.21221 10.7018 10.0028 9.93701 10.9691 9.93701H7.62082C6.65465 9.93701 5.86401 10.7018 5.86401 11.6366V33.1012C5.86401 34.036 6.65465 34.8008 7.62082 34.8008H10.9691C10.0028 34.8007 9.21221 34.0359 9.21221 33.1011Z" fill="#440075"/>
</g>
<path d="M36.5132 22.4004C36.5132 25.6429 33.7963 28.271 30.4449 28.271H16.0899C12.7383 28.271 10.0214 25.6428 10.0214 22.4004C10.0214 19.158 12.7383 16.5298 16.0899 16.5298H30.4449C33.7963 16.5298 36.5132 19.158 36.5132 22.4004Z" fill="#135693"/>
<g opacity="0.15">
<path opacity="0.15" d="M13.4287 22.4004C13.4287 19.158 16.1456 16.5298 19.4972 16.5298H16.0899C12.7383 16.5298 10.0214 19.1581 10.0214 22.4004C10.0214 25.6429 12.7383 28.271 16.0899 28.271H19.4972C16.1456 28.271 13.4287 25.6428 13.4287 22.4004Z" fill="#440075"/>
</g>
<path d="M15.4839 24.695C16.787 24.695 17.8435 23.6689 17.8435 22.4032C17.8435 21.1374 16.787 20.1113 15.4839 20.1113C14.1807 20.1113 13.1242 21.1374 13.1242 22.4032C13.1242 23.6689 14.1807 24.695 15.4839 24.695Z" fill="#6BC1DD"/>
<path d="M31.0965 24.6936C32.3997 24.6936 33.4562 23.6675 33.4562 22.4017C33.4562 21.136 32.3997 20.1099 31.0965 20.1099C29.7934 20.1099 28.7369 21.136 28.7369 22.4017C28.7369 23.6675 29.7934 24.6936 31.0965 24.6936Z" fill="#6BC1DD"/>
<path d="M33.7358 56.8829V47.0043C33.7358 46.381 33.2087 45.8711 32.5645 45.8711H13.9708C13.3266 45.8711 12.7996 46.381 12.7996 47.0043V56.8829H33.7358Z" fill="#135693"/>
<path d="M25.3758 56.883V53.6969C25.3758 53.5099 25.2177 53.3569 25.0245 53.3569H21.5106C21.3175 53.3569 21.1593 53.5099 21.1593 53.6969V56.883H25.3758Z" fill="#FFC502"/>
<path d="M18.3482 49.418H15.6543C15.1832 49.418 14.8016 49.0487 14.8016 48.593C14.8016 48.1373 15.1832 47.7681 15.6543 47.7681H18.3482C18.8192 47.7681 19.2009 48.1373 19.2009 48.593C19.2009 49.0486 18.8192 49.418 18.3482 49.418Z" fill="#C5CCD3"/>
<path d="M17.177 51.4302H15.6543C15.1833 51.4302 14.8016 51.0609 14.8016 50.6052C14.8016 50.1495 15.1833 49.7803 15.6543 49.7803H17.177C17.6481 49.7803 18.0297 50.1495 18.0297 50.6052C18.0297 51.0609 17.648 51.4302 17.177 51.4302Z" fill="#C5CCD3"/>
<path d="M18.3482 53.4458H15.6543C15.1833 53.4458 14.8016 53.0765 14.8016 52.6209C14.8016 52.1651 15.1833 51.7959 15.6543 51.7959H18.3482C18.8192 51.7959 19.2009 52.1651 19.2009 52.6209C19.2009 53.0766 18.8192 53.4458 18.3482 53.4458Z" fill="#C5CCD3"/>
<path d="M16.8256 55.4585H15.6543C15.1833 55.4585 14.8016 55.0893 14.8016 54.6336C14.8016 54.178 15.1833 53.8086 15.6543 53.8086H16.8256C17.2966 53.8086 17.6783 54.178 17.6783 54.6336C17.6783 55.0893 17.2965 55.4585 16.8256 55.4585Z" fill="#C5CCD3"/>
<path d="M30.4939 54.6317H28.4147C27.9214 54.6317 27.5216 54.2448 27.5216 53.7674C27.5216 53.2901 27.9215 52.9033 28.4147 52.9033H30.4939C30.9873 52.9033 31.3872 53.2902 31.3872 53.7674C31.3872 54.2449 30.9873 54.6317 30.4939 54.6317Z" fill="#E6E9ED"/>
<path d="M29.455 51.6367C30.491 51.6367 31.3309 50.8241 31.3309 49.8217C31.3309 48.8194 30.491 48.0068 29.455 48.0068C28.4189 48.0068 27.579 48.8194 27.579 49.8217C27.579 50.8241 28.4189 51.6367 29.455 51.6367Z" fill="#5DC647"/>
<path d="M25.4279 50.7717C25.4279 50.9633 25.2659 51.12 25.068 51.12H21.4675C21.2695 51.12 21.1075 50.9633 21.1075 50.7717V48.8728C21.1075 48.6812 21.2695 48.5244 21.4675 48.5244H25.068C25.2659 48.5244 25.4279 48.6812 25.4279 48.8728V50.7717Z" fill="#6BC1DD"/>
<path d="M10.7528 81.457L9.63819 78.2925H5.28118L4.1666 81.457H2.19464L6.43474 70.015H8.50802L12.7403 81.457H10.7528ZM9.15494 76.6869L8.07154 73.5692C8.02997 73.4341 7.97021 73.2444 7.89227 73.0002C7.81433 72.7508 7.73638 72.4988 7.65844 72.2442C7.5805 71.9844 7.51554 71.7661 7.46358 71.5895C7.41162 71.8025 7.34667 72.0415 7.26872 72.3065C7.19598 72.5663 7.12323 72.8106 7.05048 73.0392C6.98293 73.2678 6.93097 73.4445 6.8946 73.5692L5.8034 76.6869H9.15494ZM18.4302 72.6651C18.5756 72.6651 18.7341 72.6729 18.9056 72.6885C19.0771 72.704 19.2252 72.7248 19.3499 72.7508L19.1784 74.4656C19.0693 74.4344 18.9342 74.411 18.7731 74.3954C18.6172 74.3798 18.4769 74.372 18.3522 74.372C18.0248 74.372 17.7131 74.4266 17.4169 74.5357C17.1207 74.6396 16.8583 74.8007 16.6297 75.0189C16.401 75.232 16.2218 75.4996 16.0919 75.8218C15.962 76.1439 15.897 76.518 15.897 76.9441V81.457H14.0576V72.8288H15.4917L15.7411 74.3486H15.8269C15.9983 74.0421 16.2114 73.7615 16.466 73.5069C16.7206 73.2522 17.0116 73.0496 17.3389 72.8989C17.6715 72.743 18.0352 72.6651 18.4302 72.6651ZM24.159 80.132C24.398 80.132 24.6344 80.1112 24.8682 80.0696C25.1021 80.0229 25.3151 79.9683 25.5074 79.906V81.2934C25.3047 81.3817 25.0423 81.457 24.7201 81.5194C24.398 81.5817 24.0628 81.6129 23.7147 81.6129C23.2262 81.6129 22.7872 81.5324 22.3974 81.3713C22.0077 81.205 21.6986 80.9218 21.4699 80.5217C21.2413 80.1216 21.127 79.5682 21.127 78.8615V74.2239H19.95V73.4055L21.2127 72.7586L21.8129 70.9114H22.9664V72.8288H25.4372V74.2239H22.9664V78.8381C22.9664 79.2746 23.0755 79.5994 23.2938 79.8124C23.512 80.0255 23.8004 80.132 24.159 80.132ZM29.0927 72.8288V81.457H27.2611V72.8288H29.0927ZM28.1886 69.524C28.4692 69.524 28.7108 69.5993 28.9135 69.75C29.1213 69.9007 29.2252 70.1605 29.2252 70.5294C29.2252 70.8932 29.1213 71.153 28.9135 71.3089C28.7108 71.4596 28.4692 71.5349 28.1886 71.5349C27.8976 71.5349 27.6508 71.4596 27.4481 71.3089C27.2507 71.153 27.152 70.8932 27.152 70.5294C27.152 70.1605 27.2507 69.9007 27.4481 69.75C27.6508 69.5993 27.8976 69.524 28.1886 69.524ZM36.0297 74.2239H33.933V81.457H32.1013V74.2239H30.6906V73.3432L32.1013 72.8054V72.2052C32.1013 71.4725 32.2157 70.8906 32.4443 70.4593C32.6781 70.028 33.0107 69.7188 33.442 69.5318C33.8784 69.3395 34.3981 69.2434 35.0008 69.2434C35.3957 69.2434 35.7569 69.2772 36.0842 69.3447C36.4116 69.4071 36.687 69.4798 36.9104 69.5629L36.435 70.9503C36.2583 70.8932 36.0608 70.8412 35.8426 70.7944C35.6244 70.7425 35.3905 70.7165 35.1411 70.7165C34.7254 70.7165 34.4188 70.8464 34.2214 71.1062C34.0291 71.366 33.933 71.7453 33.933 72.2442V72.8288H36.0297V74.2239ZM39.3266 72.8288V81.457H37.495V72.8288H39.3266ZM38.4225 69.524C38.7031 69.524 38.9447 69.5993 39.1474 69.75C39.3552 69.9007 39.4591 70.1605 39.4591 70.5294C39.4591 70.8932 39.3552 71.153 39.1474 71.3089C38.9447 71.4596 38.7031 71.5349 38.4225 71.5349C38.1315 71.5349 37.8847 71.4596 37.682 71.3089C37.4846 71.153 37.3859 70.8932 37.3859 70.5294C37.3859 70.1605 37.4846 69.9007 37.682 69.75C37.8847 69.5993 38.1315 69.524 38.4225 69.524ZM45.4218 81.6129C44.606 81.6129 43.8993 81.4544 43.3017 81.1375C42.7042 80.8205 42.2443 80.3347 41.9221 79.6799C41.6 79.0252 41.4389 78.1938 41.4389 77.1858C41.4389 76.1361 41.6156 75.2788 41.9689 74.6136C42.3223 73.9485 42.8107 73.4575 43.4342 73.1405C44.063 72.8236 44.7826 72.6651 45.5933 72.6651C46.1077 72.6651 46.5727 72.717 46.9884 72.821C47.4093 72.9197 47.7653 73.0418 48.0563 73.1873L47.5107 74.6526C47.1937 74.5227 46.8689 74.4136 46.5364 74.3253C46.2038 74.2369 45.8842 74.1928 45.5777 74.1928C45.0736 74.1928 44.6527 74.3045 44.315 74.5279C43.9824 74.7513 43.733 75.0839 43.5667 75.5256C43.4057 75.9673 43.3251 76.5155 43.3251 77.1702C43.3251 77.8041 43.4083 78.3393 43.5745 78.7758C43.7408 79.2071 43.9876 79.5344 44.315 79.7579C44.6424 79.9761 45.0451 80.0852 45.5231 80.0852C45.996 80.0852 46.4194 80.0281 46.7936 79.9138C47.1677 79.7994 47.521 79.6514 47.8536 79.4695V81.0595C47.5262 81.2466 47.1755 81.3843 46.8014 81.4726C46.4272 81.5662 45.9674 81.6129 45.4218 81.6129ZM51.7118 72.8288V81.457H49.8801V72.8288H51.7118ZM50.8076 69.524C51.0882 69.524 51.3299 69.5993 51.5325 69.75C51.7404 69.9007 51.8443 70.1605 51.8443 70.5294C51.8443 70.8932 51.7404 71.153 51.5325 71.3089C51.3299 71.4596 51.0882 71.5349 50.8076 71.5349C50.5166 71.5349 50.2698 71.4596 50.0672 71.3089C49.8697 71.153 49.771 70.8932 49.771 70.5294C49.771 70.1605 49.8697 69.9007 50.0672 69.75C50.2698 69.5993 50.5166 69.524 50.8076 69.524ZM57.7212 72.6651C58.8124 72.6651 59.636 72.9067 60.192 73.3899C60.7531 73.8732 61.0337 74.6266 61.0337 75.6503V81.457H59.7321L59.3814 80.2333H59.319C59.0748 80.5451 58.8228 80.8023 58.563 81.005C58.3031 81.2076 58.0018 81.3583 57.6588 81.457C57.3211 81.561 56.908 81.6129 56.4195 81.6129C55.9051 81.6129 55.4452 81.5194 55.0399 81.3323C54.6346 81.1401 54.3151 80.8491 54.0812 80.4594C53.8474 80.0696 53.7305 79.576 53.7305 78.9784C53.7305 78.0899 54.0605 77.4222 54.7204 76.9753C55.3855 76.5284 56.3883 76.2816 57.729 76.2349L59.2255 76.1803V75.7282C59.2255 75.1307 59.0852 74.7046 58.8046 74.45C58.5292 74.1953 58.1395 74.068 57.6354 74.068C57.2041 74.068 56.7859 74.1304 56.3806 74.2551C55.9752 74.3798 55.5803 74.5331 55.1958 74.715L54.6035 73.4211C55.0243 73.1977 55.5024 73.0158 56.0376 72.8755C56.578 72.7352 57.1392 72.6651 57.7212 72.6651ZM59.2177 77.3339L58.1031 77.3728C57.1886 77.404 56.5468 77.5599 56.1779 77.8405C55.809 78.1211 55.6245 78.5056 55.6245 78.994C55.6245 79.4201 55.7518 79.7319 56.0064 79.9294C56.261 80.1216 56.5962 80.2177 57.0119 80.2177C57.6458 80.2177 58.1706 80.0385 58.5863 79.6799C59.0072 79.3162 59.2177 78.7836 59.2177 78.0821V77.3339ZM65.4375 81.457H63.5981V69.3291H65.4375V81.457ZM72.39 81.457V70.0618H74.2607V81.457H72.39ZM81.5795 72.6651C82.5512 72.6651 83.3072 72.9171 83.8476 73.4211C84.3932 73.92 84.666 74.7228 84.666 75.8296V81.457H82.8344V76.1725C82.8344 75.5022 82.6967 75.0008 82.4213 74.6682C82.1459 74.3305 81.7198 74.1616 81.143 74.1616C80.3064 74.1616 79.7245 74.4188 79.3971 74.9332C79.0749 75.4476 78.9139 76.1933 78.9139 77.1702V81.457H77.0822V72.8288H78.5085L78.7658 73.9979H78.8671C79.0541 73.6965 79.2854 73.4497 79.5608 73.2574C79.8414 73.06 80.1531 72.9119 80.4961 72.8132C80.8442 72.7144 81.2054 72.6651 81.5795 72.6651ZM90.4416 80.132C90.6806 80.132 90.9171 80.1112 91.1509 80.0696C91.3847 80.0229 91.5978 79.9683 91.79 79.906V81.2934C91.5874 81.3817 91.325 81.457 91.0028 81.5194C90.6806 81.5817 90.3455 81.6129 89.9973 81.6129C89.5089 81.6129 89.0698 81.5324 88.6801 81.3713C88.2904 81.205 87.9812 80.9218 87.7526 80.5217C87.5239 80.1216 87.4096 79.5682 87.4096 78.8615V74.2239H86.2327V73.4055L87.4954 72.7586L88.0955 70.9114H89.2491V72.8288H91.7199V74.2239H89.2491V78.8381C89.2491 79.2746 89.3582 79.5994 89.5764 79.8124C89.7947 80.0255 90.0831 80.132 90.4416 80.132ZM96.981 72.6651C97.7501 72.6651 98.41 72.8236 98.9608 73.1405C99.5116 73.4575 99.9351 73.907 100.231 74.4889C100.527 75.0709 100.676 75.7672 100.676 76.5778V77.5599H94.9155C94.9363 78.3965 95.1597 79.0408 95.5858 79.4929C96.0171 79.9449 96.6199 80.171 97.3941 80.171C97.9449 80.171 98.4385 80.119 98.875 80.0151C99.3167 79.906 99.7714 79.7475 100.239 79.5396V81.0283C99.8077 81.231 99.3687 81.3791 98.9218 81.4726C98.4749 81.5662 97.9397 81.6129 97.3162 81.6129C96.4692 81.6129 95.7235 81.4492 95.0792 81.1219C94.4401 80.7893 93.9386 80.2957 93.5749 79.641C93.2164 78.9862 93.0371 78.173 93.0371 77.2013C93.0371 76.2349 93.2008 75.4139 93.5281 74.7384C93.8555 74.0628 94.3154 73.5484 94.9077 73.1951C95.5001 72.8417 96.1912 72.6651 96.981 72.6651ZM96.981 74.0447C96.4042 74.0447 95.9366 74.2317 95.578 74.6058C95.2247 74.98 95.0169 75.5282 94.9545 76.2504H98.8828C98.8776 75.8192 98.8049 75.4372 98.6646 75.1047C98.5295 74.7721 98.3216 74.5123 98.041 74.3253C97.7656 74.1382 97.4123 74.0447 96.981 74.0447ZM104.58 81.457H102.741V69.3291H104.58V81.457ZM109.039 81.457H107.199V69.3291H109.039V81.457ZM113.489 72.8288V81.457H111.658V72.8288H113.489ZM112.585 69.524C112.866 69.524 113.107 69.5993 113.31 69.75C113.518 69.9007 113.622 70.1605 113.622 70.5294C113.622 70.8932 113.518 71.153 113.31 71.3089C113.107 71.4596 112.866 71.5349 112.585 71.5349C112.294 71.5349 112.047 71.4596 111.845 71.3089C111.647 71.153 111.549 70.8932 111.549 70.5294C111.549 70.1605 111.647 69.9007 111.845 69.75C112.047 69.5993 112.294 69.524 112.585 69.524ZM118.579 85.2918C117.41 85.2918 116.514 85.0814 115.89 84.6605C115.266 84.2396 114.955 83.6498 114.955 82.8912C114.955 82.3612 115.121 81.9117 115.453 81.5428C115.786 81.179 116.261 80.927 116.88 80.7867C116.646 80.6828 116.443 80.5217 116.272 80.3035C116.106 80.08 116.022 79.8332 116.022 79.563C116.022 79.2409 116.113 78.9655 116.295 78.7368C116.477 78.5082 116.75 78.2874 117.114 78.0743C116.662 77.882 116.298 77.5703 116.022 77.139C115.752 76.7025 115.617 76.1907 115.617 75.6035C115.617 74.98 115.75 74.45 116.015 74.0135C116.28 73.5718 116.667 73.2367 117.176 73.008C117.685 72.7742 118.301 72.6573 119.023 72.6573C119.179 72.6573 119.348 72.6677 119.53 72.6885C119.717 72.704 119.888 72.7248 120.044 72.7508C120.205 72.7716 120.328 72.795 120.411 72.821H123.396V73.842L121.931 74.1148C122.071 74.3123 122.183 74.5383 122.266 74.7929C122.349 75.0423 122.39 75.3151 122.39 75.6113C122.39 76.5051 122.081 77.2091 121.463 77.7236C120.85 78.2328 120.003 78.4874 118.922 78.4874C118.662 78.477 118.41 78.4562 118.166 78.4251C117.979 78.5394 117.836 78.6667 117.737 78.807C117.638 78.9421 117.589 79.0954 117.589 79.2668C117.589 79.4071 117.638 79.5214 117.737 79.6098C117.836 79.6929 117.981 79.7553 118.174 79.7968C118.371 79.8384 118.61 79.8592 118.891 79.8592H120.379C121.325 79.8592 122.047 80.0593 122.546 80.4594C123.045 80.8595 123.295 81.4466 123.295 82.2209C123.295 83.203 122.889 83.959 122.079 84.489C121.268 85.0242 120.101 85.2918 118.579 85.2918ZM118.649 84.0058C119.288 84.0058 119.826 83.9434 120.263 83.8187C120.699 83.694 121.029 83.5147 121.252 83.2809C121.476 83.0523 121.588 82.7795 121.588 82.4625C121.588 82.1819 121.517 81.9663 121.377 81.8156C121.237 81.6649 121.026 81.561 120.746 81.5038C120.465 81.4466 120.117 81.4181 119.701 81.4181H118.345C118.007 81.4181 117.709 81.47 117.449 81.5739C117.189 81.6831 116.986 81.839 116.841 82.0416C116.701 82.2443 116.63 82.4885 116.63 82.7743C116.63 83.1692 116.805 83.4732 117.153 83.6862C117.506 83.8992 118.005 84.0058 118.649 84.0058ZM119.008 77.2871C119.543 77.2871 119.94 77.1416 120.2 76.8506C120.46 76.5544 120.59 76.1387 120.59 75.6035C120.59 75.0215 120.455 74.5851 120.185 74.2941C119.92 74.0031 119.525 73.8576 119 73.8576C118.485 73.8576 118.093 74.0057 117.823 74.3019C117.558 74.5981 117.425 75.0371 117.425 75.6191C117.425 76.1439 117.558 76.5544 117.823 76.8506C118.093 77.1416 118.488 77.2871 119.008 77.2871ZM128.408 72.6651C129.177 72.6651 129.837 72.8236 130.387 73.1405C130.938 73.4575 131.362 73.907 131.658 74.4889C131.954 75.0709 132.102 75.7672 132.102 76.5778V77.5599H126.342C126.363 78.3965 126.586 79.0408 127.012 79.4929C127.444 79.9449 128.046 80.171 128.821 80.171C129.371 80.171 129.865 80.119 130.302 80.0151C130.743 79.906 131.198 79.7475 131.666 79.5396V81.0283C131.234 81.231 130.795 81.3791 130.348 81.4726C129.902 81.5662 129.366 81.6129 128.743 81.6129C127.896 81.6129 127.15 81.4492 126.506 81.1219C125.867 80.7893 125.365 80.2957 125.001 79.641C124.643 78.9862 124.464 78.173 124.464 77.2013C124.464 76.2349 124.627 75.4139 124.955 74.7384C125.282 74.0628 125.742 73.5484 126.334 73.1951C126.927 72.8417 127.618 72.6651 128.408 72.6651ZM128.408 74.0447C127.831 74.0447 127.363 74.2317 127.005 74.6058C126.651 74.98 126.443 75.5282 126.381 76.2504H130.309C130.304 75.8192 130.231 75.4372 130.091 75.1047C129.956 74.7721 129.748 74.5123 129.468 74.3253C129.192 74.1382 128.839 74.0447 128.408 74.0447ZM138.665 72.6651C139.637 72.6651 140.393 72.9171 140.933 73.4211C141.479 73.92 141.751 74.7228 141.751 75.8296V81.457H139.92V76.1725C139.92 75.5022 139.782 75.0008 139.507 74.6682C139.231 74.3305 138.805 74.1616 138.228 74.1616C137.392 74.1616 136.81 74.4188 136.482 74.9332C136.16 75.4476 135.999 76.1933 135.999 77.1702V81.457H134.168V72.8288H135.594L135.851 73.9979H135.952C136.14 73.6965 136.371 73.4497 136.646 73.2574C136.927 73.06 137.239 72.9119 137.581 72.8132C137.93 72.7144 138.291 72.6651 138.665 72.6651ZM147.792 81.6129C146.976 81.6129 146.27 81.4544 145.672 81.1375C145.074 80.8205 144.615 80.3347 144.292 79.6799C143.97 79.0252 143.809 78.1938 143.809 77.1858C143.809 76.1361 143.986 75.2788 144.339 74.6136C144.692 73.9485 145.181 73.4575 145.804 73.1405C146.433 72.8236 147.153 72.6651 147.963 72.6651C148.478 72.6651 148.943 72.717 149.359 72.821C149.78 72.9197 150.135 73.0418 150.426 73.1873L149.881 74.6526C149.564 74.5227 149.239 74.4136 148.907 74.3253C148.574 74.2369 148.254 74.1928 147.948 74.1928C147.444 74.1928 147.023 74.3045 146.685 74.5279C146.353 74.7513 146.103 75.0839 145.937 75.5256C145.776 75.9673 145.695 76.5155 145.695 77.1702C145.695 77.8041 145.778 78.3393 145.945 78.7758C146.111 79.2071 146.358 79.5344 146.685 79.7579C147.013 79.9761 147.415 80.0852 147.893 80.0852C148.366 80.0852 148.79 80.0281 149.164 79.9138C149.538 79.7994 149.891 79.6514 150.224 79.4695V81.0595C149.896 81.2466 149.546 81.3843 149.172 81.4726C148.797 81.5662 148.338 81.6129 147.792 81.6129ZM155.688 72.6651C156.457 72.6651 157.117 72.8236 157.667 73.1405C158.218 73.4575 158.642 73.907 158.938 74.4889C159.234 75.0709 159.382 75.7672 159.382 76.5778V77.5599H153.622C153.643 78.3965 153.866 79.0408 154.292 79.4929C154.724 79.9449 155.326 80.171 156.101 80.171C156.652 80.171 157.145 80.119 157.582 80.0151C158.023 79.906 158.478 79.7475 158.946 79.5396V81.0283C158.514 81.231 158.075 81.3791 157.628 81.4726C157.182 81.5662 156.646 81.6129 156.023 81.6129C155.176 81.6129 154.43 81.4492 153.786 81.1219C153.147 80.7893 152.645 80.2957 152.282 79.641C151.923 78.9862 151.744 78.173 151.744 77.2013C151.744 76.2349 151.907 75.4139 152.235 74.7384C152.562 74.0628 153.022 73.5484 153.614 73.1951C154.207 72.8417 154.898 72.6651 155.688 72.6651ZM155.688 74.0447C155.111 74.0447 154.643 74.2317 154.285 74.6058C153.931 74.98 153.723 75.5282 153.661 76.2504H157.589C157.584 75.8192 157.511 75.4372 157.371 75.1047C157.236 74.7721 157.028 74.5123 156.748 74.3253C156.472 74.1382 156.119 74.0447 155.688 74.0447Z" fill="#3A68B8"/>
</svg>
