<svg width="17" height="16" viewBox="0 0 17 16" fill="none" xmlns="http://www.w3.org/2000/svg">
<path d="M11.7986 0.944336H4.30255C2.23256 0.944336 0.554504 2.56778 0.554504 4.5704V11.8225C0.554504 13.8251 2.23256 15.4486 4.30255 15.4486H11.7986C13.8686 15.4486 15.5467 13.8251 15.5467 11.8225V4.5704C15.5467 2.56778 13.8686 0.944336 11.7986 0.944336Z" stroke="white" stroke-linecap="round" stroke-linejoin="round"/>
<path d="M11.0488 7.73902C11.1413 8.34257 11.0347 8.95898 10.7443 9.50057C10.4538 10.0422 9.99421 10.4813 9.43086 10.7557C8.86751 11.03 8.2291 11.1255 7.60643 11.0285C6.98376 10.9316 6.40854 10.6472 5.96258 10.2157C5.51662 9.78429 5.22263 9.22779 5.12244 8.62538C5.02224 8.02298 5.12093 7.40534 5.40448 6.86033C5.68803 6.31532 6.14199 5.87068 6.7018 5.58966C7.26161 5.30864 7.89875 5.20555 8.52261 5.29505C9.15897 5.38635 9.74811 5.67322 10.203 6.11331C10.6579 6.5534 10.9544 7.12337 11.0488 7.73902Z" stroke="white" stroke-linecap="round" stroke-linejoin="round"/>
<path d="M12.1734 4.20752H12.1809" stroke="white" stroke-linecap="round" stroke-linejoin="round"/>
</svg>
