<svg width="20" height="14" viewBox="0 0 20 14" fill="none" xmlns="http://www.w3.org/2000/svg">
<path d="M18.495 2.7919C18.3979 2.41645 18.2 2.07245 17.9215 1.79465C17.643 1.51684 17.2936 1.31507 16.9086 1.2097C15.5022 0.877441 9.8763 0.877441 9.8763 0.877441C9.8763 0.877441 4.25043 0.877441 2.84396 1.24135C2.45902 1.34671 2.10964 1.54848 1.8311 1.82629C1.55256 2.1041 1.35473 2.4481 1.2576 2.82355C1.00019 4.20446 0.874282 5.6053 0.881449 7.00846C0.872274 8.4222 0.998192 9.83372 1.2576 11.225C1.36468 11.5888 1.56694 11.9197 1.84483 12.1858C2.12272 12.4519 2.46685 12.6441 2.84396 12.7439C4.25043 13.1078 9.8763 13.1078 9.8763 13.1078C9.8763 13.1078 15.5022 13.1078 16.9086 12.7439C17.2936 12.6386 17.643 12.4368 17.9215 12.159C18.2 11.8812 18.3979 11.5372 18.495 11.1617C18.7504 9.79123 18.8763 8.40106 18.8712 7.00846C18.8803 5.59473 18.7544 4.18321 18.495 2.7919V2.7919Z" stroke="white" stroke-linecap="round" stroke-linejoin="round"/>
<path d="M8.03644 9.59567L12.7383 7.00877L8.03644 4.42188V9.59567Z" stroke="white" stroke-linecap="round" stroke-linejoin="round"/>
</svg>
