<svg width="17" height="16" viewBox="0 0 17 16" fill="none" xmlns="http://www.w3.org/2000/svg">
<path d="M11.3963 5.26221C12.5892 5.26221 13.7332 5.72064 14.5767 6.53667C15.4201 7.35269 15.894 8.45945 15.894 9.61348V14.69H12.8956V9.61348C12.8956 9.22881 12.7376 8.85988 12.4564 8.58788C12.1753 8.31587 11.794 8.16306 11.3963 8.16306C10.9987 8.16306 10.6174 8.31587 10.3362 8.58788C10.0551 8.85988 9.89712 9.22881 9.89712 9.61348V14.69H6.89868V9.61348C6.89868 8.45945 7.37254 7.35269 8.21602 6.53667C9.05949 5.72064 10.2035 5.26221 11.3963 5.26221V5.26221Z" stroke="white" stroke-linecap="round" stroke-linejoin="round"/>
<path d="M3.90029 5.98779H0.901855V14.6903H3.90029V5.98779Z" stroke="white" stroke-linecap="round" stroke-linejoin="round"/>
<path d="M2.40107 3.81247C3.22907 3.81247 3.90029 3.16309 3.90029 2.36205C3.90029 1.561 3.22907 0.911621 2.40107 0.911621C1.57308 0.911621 0.901855 1.561 0.901855 2.36205C0.901855 3.16309 1.57308 3.81247 2.40107 3.81247Z" stroke="white" stroke-linecap="round" stroke-linejoin="round"/>
</svg>
