<svg width="20" height="16" viewBox="0 0 20 16" fill="none" xmlns="http://www.w3.org/2000/svg">
<path d="M18.9149 0.952464C18.1148 1.49847 17.229 1.91607 16.2914 2.18919C15.7882 1.62944 15.1195 1.2327 14.3756 1.05264C13.6318 0.87257 12.8487 0.917865 12.1323 1.18239C11.4159 1.44692 10.8008 1.91792 10.3701 2.53169C9.93944 3.14546 9.714 3.87239 9.72428 4.61416V5.42248C8.25598 5.45931 6.80105 5.14426 5.48907 4.50539C4.17709 3.86652 3.04879 2.92366 2.20466 1.76078C2.20466 1.76078 -1.1374 9.03567 6.38223 12.269C4.66151 13.399 2.61168 13.9656 0.53363 13.8856C8.05325 17.9272 17.2439 13.8856 17.2439 4.58991C17.2431 4.36475 17.2208 4.14015 17.1771 3.919C18.0298 3.10542 18.6315 2.07822 18.9149 0.952464V0.952464Z" stroke="white" stroke-linecap="round" stroke-linejoin="round"/>
</svg>
